<svg xmlns="http://www.w3.org/2000/svg" width="2638" height="4951.5" viewBox="0 0 2638 4951.5">
  <g id="PSPOT" transform="translate(564.5 714)">
    <g id="Group_14" data-name="Group 14">
      <g id="surface1" transform="translate(-321 74)">
        <path id="Path_16" data-name="Path 16" d="M32,342A26.032,26.032,0,0,1,6,316V236a26.032,26.032,0,0,1,26-26h101.09l12.371-74.27A25.918,25.918,0,0,1,171.109,114H300.227a25.854,25.854,0,0,1,23.257,14.375l40.332,80.664,91.321,26.1a26.117,26.117,0,0,1,18.851,25V316a26.032,26.032,0,0,1-26,26Z" fill="#ffca28"/>
        <path id="Path_17" data-name="Path 17" d="M300.227,120a19.9,19.9,0,0,1,17.894,11.051l39.145,78.312,2.363,4.715,5.074,1.453L453.492,240.9A20.106,20.106,0,0,1,468,260.137V316a20.031,20.031,0,0,1-20,20H32a20.031,20.031,0,0,1-20-20v-80A20.028,20.028,0,0,1,32,216H138.168l1.668-10.031L151.379,136.7a19.949,19.949,0,0,1,19.73-16.7H300.227m0-12H171.109a31.988,31.988,0,0,0-31.562,26.734L128,204H32A32,32,0,0,0,0,236v80A32,32,0,0,0,32,348h416A32,32,0,0,0,480,316V260.137a32,32,0,0,0-23.207-30.77L368,204l-39.145-78.312A32.024,32.024,0,0,0,300.227,108Z" fill="#f57c00"/>
        <path id="Path_18" data-name="Path 18" d="M426,330a48,48,0,1,1-48-48A48,48,0,0,1,426,330Z" fill="#dff0fe"/>
        <path id="Path_19" data-name="Path 19" d="M378,288a42,42,0,1,1-42,42,42.046,42.046,0,0,1,42-42m0-12a54,54,0,1,0,54,54A54,54,0,0,0,378,276Z" fill="#f57c00"/>
        <path id="Path_20" data-name="Path 20" d="M396,330a18,18,0,1,1-18-18A18,18,0,0,1,396,330Z" fill="#f57c00"/>
        <path id="Path_21" data-name="Path 21" d="M150,330a48,48,0,1,1-48-48A48,48,0,0,1,150,330Z" fill="#dff0fe"/>
        <path id="Path_22" data-name="Path 22" d="M102,288a42,42,0,1,1-42,42,42.046,42.046,0,0,1,42-42m0-12a54,54,0,1,0,54,54A54,54,0,0,0,102,276Z" fill="#f57c00"/>
        <path id="Path_23" data-name="Path 23" d="M120,330a18,18,0,1,1-18-18A18,18,0,0,1,120,330Z" fill="#f57c00"/>
        <path id="Path_24" data-name="Path 24" d="M114.961,210l10.969-73.656A26.142,26.142,0,0,1,151.68,114H299.914a25.856,25.856,0,0,1,23.258,14.375l40.668,80.676,3.324.949Z" fill="#ffca28"/>
        <path id="Path_25" data-name="Path 25" d="M299.9,120a19.9,19.9,0,0,1,17.907,11.09L354.563,204H121.922l9.957-66.828A20.1,20.1,0,0,1,151.68,120H299.9m0-12H151.68A32.009,32.009,0,0,0,120,135.48L108,216H410l-42-12-39.469-78.312A32.026,32.026,0,0,0,299.9,108Z" fill="#f57c00"/>
        <path id="Path_26" data-name="Path 26" d="M216,108h12V216H216Z" fill="#f57c00"/>
        <path id="Path_27" data-name="Path 27" d="M462,252a18,18,0,0,0,0,36h6V257.988a23.722,23.722,0,0,0-.949-5.988Z" fill="#fff"/>
        <path id="Path_28" data-name="Path 28" d="M18,276c9.938,0,18-7.309,18-16.32V244.32C36,235.309,27.938,228,18,228H13.691A19.992,19.992,0,0,0,12,236v40Z" fill="#fff"/>
      </g>
      <g id="Group_1" data-name="Group 1" transform="translate(-164 97.8)">
        <g id="surface1-2" data-name="surface1" transform="translate(376 125)">
          <path id="Path_29" data-name="Path 29" d="M156.921,90l-4.839,2.419-87.44,43.029-5.011,2.419,2.592,4.839,2.246,4.666H43.387L42,148.063,36.993,151,32.5,153.42l2.419,4.666L52.546,194.03l2.419,5.011,5.011-2.419,4.839-2.592,1.21-.518.864-1.037,11.751-16.244,3.111,6.221,2.419,5.011,5.011-2.419,42.683-21.082V202.67h49.768V191.61H142.924V158.6l33.525-16.589,5.011-2.419-2.419-4.839-19.7-39.746Zm-5.011,14.861L166.6,134.584,89.181,172.6l-10.2-20.564-.691-1.555-3.8-7.6ZM47.361,158.432H69.653l3.283,6.739L59.631,183.489Z" transform="translate(-32.5 -90)" fill="#f57c00"/>
        </g>
        <g id="surface1-3" data-name="surface1" transform="translate(555.593 125)">
          <path id="Path_29-2" data-name="Path 29" d="M57.211,90l4.839,2.419,87.44,43.029,5.011,2.419-2.592,4.839-2.246,4.666h21.082l1.382.691L177.139,151l4.493,2.419-2.419,4.666L161.587,194.03l-2.419,5.011-5.011-2.419-4.839-2.592-1.21-.518-.864-1.037-11.751-16.244-3.111,6.221-2.419,5.011-5.011-2.419L82.268,163.961V202.67H32.5V191.61H71.209V158.6L37.684,142.015,32.673,139.6l2.419-4.839,19.7-39.746Zm5.011,14.861L47.534,134.584,124.952,172.6l10.2-20.564.691-1.555,3.8-7.6Zm104.548,53.57H144.479l-3.283,6.739L154.5,183.489Z" transform="translate(-32.5 -90)" fill="#f57c00"/>
        </g>
        <g id="Rectangle_1" data-name="Rectangle 1" transform="translate(522 226.2)" fill="#ffa000" stroke="#f57c00" stroke-width="8">
          <rect width="34" height="134" stroke="none"/>
          <rect x="4" y="4" width="26" height="126" fill="none"/>
        </g>
      </g>
      <path id="Path_32" data-name="Path 32" d="M0,0H2556" transform="translate(-561.5 458.5)" fill="none" stroke="#f57c00" stroke-width="8"/>
      <g id="Group_2" data-name="Group 2" transform="translate(214.167 308.5) rotate(90)">
        <g id="Path_33" data-name="Path 33" transform="translate(-233 -22)" fill="#f57c00">
          <path d="M 85.63233184814453 74.12744903564453 L 0.8676712512969971 74.12744903564453 L 43.25 0.9971603751182556 L 85.63233184814453 74.12744903564453 Z" stroke="none"/>
          <path d="M 43.25 1.994316101074219 L 1.735343933105469 73.62744140625 L 84.76465606689453 73.62744140625 L 43.25 1.994316101074219 M 43.25 -7.62939453125e-06 L 86.5 74.62744140625 L 0 74.62744140625 L 43.25 -7.62939453125e-06 Z" stroke="none" fill="#f57c00"/>
        </g>
        <g id="Rectangle_2" data-name="Rectangle 2" transform="translate(-204.167 45.843)" fill="#f57c00" stroke="#f57c00" stroke-width="1">
          <rect width="28.833" height="162.824" stroke="none"/>
          <rect x="0.5" y="0.5" width="27.833" height="161.824" fill="none"/>
        </g>
      </g>
      <text id="entrance" transform="translate(-37 41)" fill="#f57c00" font-size="60" font-family="SegoeUI, Segoe UI"><tspan x="0" y="0">ENTRANCE</tspan></text>
      <g id="surface1-4" data-name="surface1" transform="translate(653 -798)">
        <path id="Path_30" data-name="Path 30" d="M99.7,482.95l-2.143-.132A96.954,96.954,0,0,1,63.922,295.883l2.841-1.143-.455-3.033A96.7,96.7,0,0,1,187.566,183.643l3.912,1.066.89-3.953A120.237,120.237,0,0,1,414.451,148.3l1.29,2.275,2.592-.334a118.714,118.714,0,0,1,15.553-1.127A120.3,120.3,0,0,1,553.279,255.017l.221,1.946,1.709.97A120.285,120.285,0,0,1,496,482.95Z" transform="translate(0.882 0.882)" fill="#ffca28"/>
        <path id="Path_31" data-name="Path 31" d="M310.549,91.764a116.711,116.711,0,0,1,101.408,59.315l2.572,4.548,5.186-.666A115.492,115.492,0,0,1,550.3,256.353l.466,3.9,3.416,1.936a116.409,116.409,0,0,1-57.3,217.763h-393.3l-5.044-.132A93.071,93.071,0,0,1,66.249,300.368l5.691-2.29-.91-6.07a92.114,92.114,0,0,1-1.157-13.915,92.862,92.862,0,0,1,117.567-89.818l7.814,2.118,1.79-7.9a115.743,115.743,0,0,1,113.5-90.728m0-7.764a124.19,124.19,0,0,0-121.075,96.784A100.328,100.328,0,0,0,63.353,293.161a100.839,100.839,0,0,0,34.992,194.42v.132H496.878a124.168,124.168,0,0,0,61.129-232.275A123.2,123.2,0,0,0,418.715,147.268,124.107,124.107,0,0,0,310.549,84Z" fill="#f57c00"/>
      </g>
      <g id="Group_5" data-name="Group 5" transform="translate(-165.058 99.471)">
        <g id="Group_3" data-name="Group 3" transform="translate(876.162 -352.096) rotate(43)">
          <g id="Polygon_1" data-name="Polygon 1" transform="translate(0 0)" fill="#f57c00">
            <path d="M 135.8887329101563 117.4859237670898 L 0.8676743507385254 117.4859237670898 L 68.37820434570313 0.9971506595611572 L 135.8887329101563 117.4859237670898 Z" stroke="none"/>
            <path d="M 68.37820434570313 1.994308471679688 L 1.7353515625 116.9859237670898 L 135.0210571289063 116.9859237670898 L 68.37820434570313 1.994308471679688 M 68.37820434570313 -7.62939453125e-06 L 136.7564086914063 117.9859237670898 L 0 117.9859237670898 L 68.37820434570313 -7.62939453125e-06 Z" stroke="none" fill="#f57c00"/>
          </g>
          <g id="Rectangle_2-2" data-name="Rectangle 2" transform="translate(45.585 107.26)" fill="#f57c00" stroke="#f57c00" stroke-width="1">
            <rect width="45.585" height="257.424" stroke="none"/>
            <rect x="0.5" y="0.5" width="44.585" height="256.424" fill="none"/>
          </g>
        </g>
        <g id="Group_4" data-name="Group 4" transform="translate(795.54 -267.992) rotate(42)">
          <g id="Polygon_1-2" data-name="Polygon 1" transform="translate(136.756 364.684) rotate(180)" fill="#f57c00">
            <path d="M 135.8887329101563 117.4859161376953 L 0.8676744103431702 117.4859161376953 L 68.37820434570313 0.9971649050712585 L 135.8887329101563 117.4859161376953 Z" stroke="none"/>
            <path d="M 68.37820434570313 1.994300842285156 L 1.7353515625 116.9859008789063 L 135.0210571289063 116.9859008789063 L 68.37820434570313 1.994300842285156 M 68.37820434570313 -7.62939453125e-06 L 136.7564086914063 117.9859008789063 L 0 117.9859008789063 L 68.37820434570313 -7.62939453125e-06 Z" stroke="none" fill="#f57c00"/>
          </g>
          <g id="Rectangle_2-3" data-name="Rectangle 2" transform="translate(45.585 0)" fill="#f57c00" stroke="#f57c00" stroke-width="1">
            <rect width="45.585" height="257.424" stroke="none"/>
            <rect x="0.5" y="0.5" width="44.585" height="256.424" fill="none"/>
          </g>
        </g>
      </g>
      <text id="scanned_license_plate_sent_for_verification_" data-name="scanned 
license plate 
sent for 
verification " transform="translate(964 -559)" fill="#f57c00" font-size="50" font-family="SegoeUI, Segoe UI"><tspan x="-119.312" y="0">SCANNED </tspan><tspan x="-171.448" y="67">LICENSE PLATE </tspan><tspan x="-117.432" y="134">SENT FOR </tspan><tspan x="-162.598" y="201">VERIFICATION </tspan></text>
    </g>
    <g id="Group_15" data-name="Group 15">
      <g id="surface1-5" data-name="surface1" transform="translate(620 1338)">
        <path id="Path_16-2" data-name="Path 16" d="M32,342A26.032,26.032,0,0,1,6,316V236a26.032,26.032,0,0,1,26-26h101.09l12.371-74.27A25.918,25.918,0,0,1,171.109,114H300.227a25.854,25.854,0,0,1,23.257,14.375l40.332,80.664,91.321,26.1a26.117,26.117,0,0,1,18.851,25V316a26.032,26.032,0,0,1-26,26Z" fill="#ffca28"/>
        <path id="Path_17-2" data-name="Path 17" d="M300.227,120a19.9,19.9,0,0,1,17.894,11.051l39.145,78.312,2.363,4.715,5.074,1.453L453.492,240.9A20.106,20.106,0,0,1,468,260.137V316a20.031,20.031,0,0,1-20,20H32a20.031,20.031,0,0,1-20-20v-80A20.028,20.028,0,0,1,32,216H138.168l1.668-10.031L151.379,136.7a19.949,19.949,0,0,1,19.73-16.7H300.227m0-12H171.109a31.988,31.988,0,0,0-31.562,26.734L128,204H32A32,32,0,0,0,0,236v80A32,32,0,0,0,32,348h416A32,32,0,0,0,480,316V260.137a32,32,0,0,0-23.207-30.77L368,204l-39.145-78.312A32.024,32.024,0,0,0,300.227,108Z" fill="#f57c00"/>
        <path id="Path_18-2" data-name="Path 18" d="M426,330a48,48,0,1,1-48-48A48,48,0,0,1,426,330Z" fill="#dff0fe"/>
        <path id="Path_19-2" data-name="Path 19" d="M378,288a42,42,0,1,1-42,42,42.046,42.046,0,0,1,42-42m0-12a54,54,0,1,0,54,54A54,54,0,0,0,378,276Z" fill="#f57c00"/>
        <path id="Path_20-2" data-name="Path 20" d="M396,330a18,18,0,1,1-18-18A18,18,0,0,1,396,330Z" fill="#f57c00"/>
        <path id="Path_21-2" data-name="Path 21" d="M150,330a48,48,0,1,1-48-48A48,48,0,0,1,150,330Z" fill="#dff0fe"/>
        <path id="Path_22-2" data-name="Path 22" d="M102,288a42,42,0,1,1-42,42,42.046,42.046,0,0,1,42-42m0-12a54,54,0,1,0,54,54A54,54,0,0,0,102,276Z" fill="#f57c00"/>
        <path id="Path_23-2" data-name="Path 23" d="M120,330a18,18,0,1,1-18-18A18,18,0,0,1,120,330Z" fill="#f57c00"/>
        <path id="Path_24-2" data-name="Path 24" d="M114.961,210l10.969-73.656A26.142,26.142,0,0,1,151.68,114H299.914a25.856,25.856,0,0,1,23.258,14.375l40.668,80.676,3.324.949Z" fill="#ffca28"/>
        <path id="Path_25-2" data-name="Path 25" d="M299.9,120a19.9,19.9,0,0,1,17.907,11.09L354.563,204H121.922l9.957-66.828A20.1,20.1,0,0,1,151.68,120H299.9m0-12H151.68A32.009,32.009,0,0,0,120,135.48L108,216H410l-42-12-39.469-78.312A32.026,32.026,0,0,0,299.9,108Z" fill="#f57c00"/>
        <path id="Path_26-2" data-name="Path 26" d="M216,108h12V216H216Z" fill="#f57c00"/>
        <path id="Path_27-2" data-name="Path 27" d="M462,252a18,18,0,0,0,0,36h6V257.988a23.722,23.722,0,0,0-.949-5.988Z" fill="#fff"/>
        <path id="Path_28-2" data-name="Path 28" d="M18,276c9.938,0,18-7.309,18-16.32V244.32C36,235.309,27.938,228,18,228H13.691A19.992,19.992,0,0,0,12,236v40Z" fill="#fff"/>
      </g>
      <g id="Group_7" data-name="Group 7" transform="translate(-167 1361.8)">
        <g id="surface1-6" data-name="surface1" transform="translate(376 125)">
          <path id="Path_29-3" data-name="Path 29" d="M156.921,90l-4.839,2.419-87.44,43.029-5.011,2.419,2.592,4.839,2.246,4.666H43.387L42,148.063,36.993,151,32.5,153.42l2.419,4.666L52.546,194.03l2.419,5.011,5.011-2.419,4.839-2.592,1.21-.518.864-1.037,11.751-16.244,3.111,6.221,2.419,5.011,5.011-2.419,42.683-21.082V202.67h49.768V191.61H142.924V158.6l33.525-16.589,5.011-2.419-2.419-4.839-19.7-39.746Zm-5.011,14.861L166.6,134.584,89.181,172.6l-10.2-20.564-.691-1.555-3.8-7.6ZM47.361,158.432H69.653l3.283,6.739L59.631,183.489Z" transform="translate(-32.5 -90)" fill="#f57c00"/>
        </g>
        <g id="surface1-7" data-name="surface1" transform="translate(555.593 125)">
          <path id="Path_29-4" data-name="Path 29" d="M57.211,90l4.839,2.419,87.44,43.029,5.011,2.419-2.592,4.839-2.246,4.666h21.082l1.382.691L177.139,151l4.493,2.419-2.419,4.666L161.587,194.03l-2.419,5.011-5.011-2.419-4.839-2.592-1.21-.518-.864-1.037-11.751-16.244-3.111,6.221-2.419,5.011-5.011-2.419L82.268,163.961V202.67H32.5V191.61H71.209V158.6L37.684,142.015,32.673,139.6l2.419-4.839,19.7-39.746Zm5.011,14.861L47.534,134.584,124.952,172.6l10.2-20.564.691-1.555,3.8-7.6Zm104.548,53.57H144.479l-3.283,6.739L154.5,183.489Z" transform="translate(-32.5 -90)" fill="#f57c00"/>
        </g>
        <g id="Path_34" data-name="Path 34" transform="translate(522 226.2)" fill="#ffa000">
          <path d="M 30 130 L 4 130 L 4 4 L 30 4 L 30 130 Z" stroke="none"/>
          <path d="M 8 8 L 8 126 L 26 126 L 26 8 L 8 8 M 0 0 L 34 0 L 34 134 L 0 134 L 0 0 Z" stroke="none" fill="#f57c00"/>
        </g>
      </g>
      <line id="Line_2" data-name="Line 2" x2="2556" transform="translate(-564.5 1722.5)" fill="none" stroke="#f57c00" stroke-width="8"/>
      <g id="surface1-8" data-name="surface1" transform="translate(1305 523)">
        <path id="Path_30-2" data-name="Path 30" d="M99.7,482.95l-2.143-.132A96.954,96.954,0,0,1,63.922,295.883l2.841-1.143-.455-3.033A96.7,96.7,0,0,1,187.566,183.643l3.912,1.066.89-3.953A120.237,120.237,0,0,1,414.451,148.3l1.29,2.275,2.592-.334a118.714,118.714,0,0,1,15.553-1.127A120.3,120.3,0,0,1,553.279,255.017l.221,1.946,1.709.97A120.285,120.285,0,0,1,496,482.95Z" transform="translate(0.882 0.882)" fill="#ffca28"/>
        <path id="Path_31-2" data-name="Path 31" d="M310.549,91.764a116.711,116.711,0,0,1,101.408,59.315l2.572,4.548,5.186-.666A115.492,115.492,0,0,1,550.3,256.353l.466,3.9,3.416,1.936a116.409,116.409,0,0,1-57.3,217.763h-393.3l-5.044-.132A93.071,93.071,0,0,1,66.249,300.368l5.691-2.29-.91-6.07a92.114,92.114,0,0,1-1.157-13.915,92.862,92.862,0,0,1,117.567-89.818l7.814,2.118,1.79-7.9a115.743,115.743,0,0,1,113.5-90.728m0-7.764a124.19,124.19,0,0,0-121.075,96.784A100.328,100.328,0,0,0,63.353,293.161a100.839,100.839,0,0,0,34.992,194.42v.132H496.878a124.168,124.168,0,0,0,61.129-232.275A123.2,123.2,0,0,0,418.715,147.268,124.107,124.107,0,0,0,310.549,84Z" fill="#f57c00"/>
      </g>
      <g id="Group_6" data-name="Group 6" transform="translate(427.942 1362.471)">
        <g id="Group_3-2" data-name="Group 3" transform="translate(876.162 -352.096) rotate(43)">
          <g id="Polygon_1-3" data-name="Polygon 1" transform="translate(0 0)" fill="#f57c00">
            <path d="M 135.8887329101563 117.4859237670898 L 0.8676743507385254 117.4859237670898 L 68.37820434570313 0.9971506595611572 L 135.8887329101563 117.4859237670898 Z" stroke="none"/>
            <path d="M 68.37820434570313 1.994308471679688 L 1.7353515625 116.9859237670898 L 135.0210571289063 116.9859237670898 L 68.37820434570313 1.994308471679688 M 68.37820434570313 -7.62939453125e-06 L 136.7564086914063 117.9859237670898 L 0 117.9859237670898 L 68.37820434570313 -7.62939453125e-06 Z" stroke="none" fill="#f57c00"/>
          </g>
          <g id="Rectangle_2-4" data-name="Rectangle 2" transform="translate(45.585 107.26)" fill="#f57c00" stroke="#f57c00" stroke-width="1">
            <rect width="45.585" height="257.424" stroke="none"/>
            <rect x="0.5" y="0.5" width="44.585" height="256.424" fill="none"/>
          </g>
        </g>
        <g id="Group_4-2" data-name="Group 4" transform="translate(795.54 -267.992) rotate(42)">
          <g id="Polygon_1-4" data-name="Polygon 1" transform="translate(136.756 364.684) rotate(180)" fill="#f57c00">
            <path d="M 135.8887329101563 117.4859161376953 L 0.8676744103431702 117.4859161376953 L 68.37820434570313 0.9971649050712585 L 135.8887329101563 117.4859161376953 Z" stroke="none"/>
            <path d="M 68.37820434570313 1.994300842285156 L 1.7353515625 116.9859008789063 L 135.0210571289063 116.9859008789063 L 68.37820434570313 1.994300842285156 M 68.37820434570313 -7.62939453125e-06 L 136.7564086914063 117.9859008789063 L 0 117.9859008789063 L 68.37820434570313 -7.62939453125e-06 Z" stroke="none" fill="#f57c00"/>
          </g>
          <g id="Rectangle_2-5" data-name="Rectangle 2" transform="translate(45.585 0)" fill="#f57c00" stroke="#f57c00" stroke-width="1">
            <rect width="45.585" height="257.424" stroke="none"/>
            <rect x="0.5" y="0.5" width="44.585" height="256.424" fill="none"/>
          </g>
        </g>
      </g>
      <text id="Save_entrance_date_time" data-name="Save entrance
 date/time" transform="translate(1637 823)" fill="#f57c00" font-size="50" font-family="SegoeUI, Segoe UI"><tspan x="-185.071" y="0">SAVE ENTRANCE</tspan><tspan x="-128.43" y="67" xml:space="preserve"> DATE/TIME</tspan></text>
    </g>
    <g id="Group_16" data-name="Group 16">
      <g id="surface1-9" data-name="surface1" transform="translate(656 2756)">
        <path id="Path_16-3" data-name="Path 16" d="M447.984,342a26.032,26.032,0,0,0,26-26V236a26.032,26.032,0,0,0-26-26H346.894l-12.371-74.27A25.918,25.918,0,0,0,308.879,114H179.761A25.854,25.854,0,0,0,156.5,128.375l-40.332,80.664-91.321,26.1A26.117,26.117,0,0,0,6,260.137V316a26.032,26.032,0,0,0,26,26Z" transform="translate(0.012 -108)" fill="#ffca28"/>
        <path id="Path_17-3" data-name="Path 17" d="M179.773,120a19.9,19.9,0,0,0-17.894,11.051l-39.145,78.312-2.363,4.715-5.074,1.453L26.508,240.9A20.106,20.106,0,0,0,12,260.137V316a20.031,20.031,0,0,0,20,20H448a20.031,20.031,0,0,0,20-20v-80A20.028,20.028,0,0,0,448,216H341.832l-1.668-10.031L328.621,136.7a19.949,19.949,0,0,0-19.73-16.7H179.773m0-12H308.891a31.988,31.988,0,0,1,31.562,26.734L352,204h96a32,32,0,0,1,32,32v80A32,32,0,0,1,448,348h-416A32,32,0,0,1,0,316V260.137a32,32,0,0,1,23.207-30.77L112,204l39.145-78.312A32.024,32.024,0,0,1,179.773,108Z" transform="translate(0 -108)" fill="#f57c00"/>
        <path id="Path_18-3" data-name="Path 18" d="M330,330a48,48,0,1,0,48-48A48,48,0,0,0,330,330Z" transform="translate(-276 -108)" fill="#dff0fe"/>
        <path id="Path_19-3" data-name="Path 19" d="M378,288a42,42,0,1,0,42,42,42.046,42.046,0,0,0-42-42m0-12a54,54,0,1,1-54,54A54,54,0,0,1,378,276Z" transform="translate(-276 -108)" fill="#f57c00"/>
        <path id="Path_20-3" data-name="Path 20" d="M360,330a18,18,0,1,0,18-18A18,18,0,0,0,360,330Z" transform="translate(-276 -108)" fill="#f57c00"/>
        <path id="Path_21-3" data-name="Path 21" d="M54,330a48,48,0,1,0,48-48A48,48,0,0,0,54,330Z" transform="translate(276 -108)" fill="#dff0fe"/>
        <path id="Path_22-3" data-name="Path 22" d="M102,288a42,42,0,1,0,42,42,42.046,42.046,0,0,0-42-42m0-12a54,54,0,1,1-54,54A54,54,0,0,1,102,276Z" transform="translate(276 -108)" fill="#f57c00"/>
        <path id="Path_23-3" data-name="Path 23" d="M84,330a18,18,0,1,0,18-18A18,18,0,0,0,84,330Z" transform="translate(276 -108)" fill="#f57c00"/>
        <path id="Path_24-3" data-name="Path 24" d="M367.164,210,356.2,136.344A26.142,26.142,0,0,0,330.445,114H182.211a25.856,25.856,0,0,0-23.258,14.375l-40.668,80.676-3.324.949Z" transform="translate(-2.125 -108)" fill="#ffca28"/>
        <path id="Path_25-3" data-name="Path 25" d="M218.1,120A19.9,19.9,0,0,0,200.2,131.09L163.441,204H396.082l-9.957-66.828A20.1,20.1,0,0,0,366.324,120H218.1m0-12H366.324A32.009,32.009,0,0,1,398,135.48L410,216H108l42-12,39.469-78.312A32.026,32.026,0,0,1,218.1,108Z" transform="translate(-38.004 -108)" fill="#f57c00"/>
        <path id="Path_26-3" data-name="Path 26" d="M228,108H216V216h12Z" transform="translate(36 -108)" fill="#f57c00"/>
        <path id="Path_27-3" data-name="Path 27" d="M450,252a18,18,0,0,1,0,36h-6V257.988a23.722,23.722,0,0,1,.949-5.988Z" transform="translate(-432 -108)" fill="#fff"/>
        <path id="Path_28-3" data-name="Path 28" d="M30,276c-9.937,0-18-7.309-18-16.32V244.32C12,235.309,20.063,228,30,228h4.309A19.992,19.992,0,0,1,36,236v40Z" transform="translate(432 -108)" fill="#fff"/>
      </g>
      <g id="Group_10" data-name="Group 10" transform="translate(-164 2671.8)">
        <g id="surface1-10" data-name="surface1" transform="translate(376 125)">
          <path id="Path_29-5" data-name="Path 29" d="M156.921,90l-4.839,2.419-87.44,43.029-5.011,2.419,2.592,4.839,2.246,4.666H43.387L42,148.063,36.993,151,32.5,153.42l2.419,4.666L52.546,194.03l2.419,5.011,5.011-2.419,4.839-2.592,1.21-.518.864-1.037,11.751-16.244,3.111,6.221,2.419,5.011,5.011-2.419,42.683-21.082V202.67h49.768V191.61H142.924V158.6l33.525-16.589,5.011-2.419-2.419-4.839-19.7-39.746Zm-5.011,14.861L166.6,134.584,89.181,172.6l-10.2-20.564-.691-1.555-3.8-7.6ZM47.361,158.432H69.653l3.283,6.739L59.631,183.489Z" transform="translate(-32.5 -90)" fill="#f57c00"/>
        </g>
        <g id="surface1-11" data-name="surface1" transform="translate(555.593 125)">
          <path id="Path_29-6" data-name="Path 29" d="M57.211,90l4.839,2.419,87.44,43.029,5.011,2.419-2.592,4.839-2.246,4.666h21.082l1.382.691L177.139,151l4.493,2.419-2.419,4.666L161.587,194.03l-2.419,5.011-5.011-2.419-4.839-2.592-1.21-.518-.864-1.037-11.751-16.244-3.111,6.221-2.419,5.011-5.011-2.419L82.268,163.961V202.67H32.5V191.61H71.209V158.6L37.684,142.015,32.673,139.6l2.419-4.839,19.7-39.746Zm5.011,14.861L47.534,134.584,124.952,172.6l10.2-20.564.691-1.555,3.8-7.6Zm104.548,53.57H144.479l-3.283,6.739L154.5,183.489Z" transform="translate(-32.5 -90)" fill="#f57c00"/>
        </g>
        <g id="Rectangle_1-2" data-name="Rectangle 1" transform="translate(522 226.2)" fill="#ffa000" stroke="#f57c00" stroke-width="8">
          <rect width="34" height="134" stroke="none"/>
          <rect x="4" y="4" width="26" height="126" fill="none"/>
        </g>
      </g>
      <line id="Line_3" data-name="Line 3" x2="2556" transform="translate(-561.5 3032.5)" fill="none" stroke="#f57c00" stroke-width="8"/>
      <g id="Group_11" data-name="Group 11" transform="translate(829.167 2567.5) rotate(90)">
        <g id="Polygon_1-5" data-name="Polygon 1" transform="translate(86.5 230.667) rotate(180)" fill="#f57c00">
          <path d="M 85.63233184814453 74.12744903564453 L 0.8676712512969971 74.12744903564453 L 43.25 0.9971603751182556 L 85.63233184814453 74.12744903564453 Z" stroke="none"/>
          <path d="M 43.25 1.994316101074219 L 1.735343933105469 73.62744140625 L 84.76465606689453 73.62744140625 L 43.25 1.994316101074219 M 43.25 -7.62939453125e-06 L 86.5 74.62744140625 L 0 74.62744140625 L 43.25 -7.62939453125e-06 Z" stroke="none" fill="#f57c00"/>
        </g>
        <g id="Rectangle_2-6" data-name="Rectangle 2" transform="translate(28.833 0)" fill="#f57c00" stroke="#f57c00" stroke-width="1">
          <rect width="28.833" height="162.824" stroke="none"/>
          <rect x="0.5" y="0.5" width="27.833" height="161.824" fill="none"/>
        </g>
      </g>
      <text id="exit" transform="translate(682 2552)" fill="#f57c00" font-size="60" font-family="SegoeUI, Segoe UI"><tspan x="0" y="0">EXIT</tspan></text>
      <g id="surface1-12" data-name="surface1" transform="translate(-426 1787)">
        <path id="Path_30-3" data-name="Path 30" d="M99.7,482.95l-2.143-.132A96.954,96.954,0,0,1,63.922,295.883l2.841-1.143-.455-3.033A96.7,96.7,0,0,1,187.566,183.643l3.912,1.066.89-3.953A120.237,120.237,0,0,1,414.451,148.3l1.29,2.275,2.592-.334a118.714,118.714,0,0,1,15.553-1.127A120.3,120.3,0,0,1,553.279,255.017l.221,1.946,1.709.97A120.285,120.285,0,0,1,496,482.95Z" transform="translate(0.882 0.882)" fill="#ffca28"/>
        <path id="Path_31-3" data-name="Path 31" d="M310.549,91.764a116.711,116.711,0,0,1,101.408,59.315l2.572,4.548,5.186-.666A115.492,115.492,0,0,1,550.3,256.353l.466,3.9,3.416,1.936a116.409,116.409,0,0,1-57.3,217.763h-393.3l-5.044-.132A93.071,93.071,0,0,1,66.249,300.368l5.691-2.29-.91-6.07a92.114,92.114,0,0,1-1.157-13.915,92.862,92.862,0,0,1,117.567-89.818l7.814,2.118,1.79-7.9a115.743,115.743,0,0,1,113.5-90.728m0-7.764a124.19,124.19,0,0,0-121.075,96.784A100.328,100.328,0,0,0,63.353,293.161a100.839,100.839,0,0,0,34.992,194.42v.132H496.878a124.168,124.168,0,0,0,61.129-232.275A123.2,123.2,0,0,0,418.715,147.268,124.107,124.107,0,0,0,310.549,84Z" fill="#f57c00"/>
      </g>
      <g id="Group_9" data-name="Group 9" transform="matrix(-0.07, -0.998, 0.998, -0.07, 426.545, 3279.693)">
        <g id="Group_3-3" data-name="Group 3" transform="translate(876.162 -352.096) rotate(43)">
          <g id="Polygon_1-6" data-name="Polygon 1" transform="translate(0 0)" fill="#f57c00">
            <path d="M 135.8887329101563 117.4859237670898 L 0.8676743507385254 117.4859237670898 L 68.37820434570313 0.9971506595611572 L 135.8887329101563 117.4859237670898 Z" stroke="none"/>
            <path d="M 68.37820434570313 1.994308471679688 L 1.7353515625 116.9859237670898 L 135.0210571289063 116.9859237670898 L 68.37820434570313 1.994308471679688 M 68.37820434570313 -7.62939453125e-06 L 136.7564086914063 117.9859237670898 L 0 117.9859237670898 L 68.37820434570313 -7.62939453125e-06 Z" stroke="none" fill="#f57c00"/>
          </g>
          <g id="Rectangle_2-7" data-name="Rectangle 2" transform="translate(45.585 107.26)" fill="#f57c00" stroke="#f57c00" stroke-width="1">
            <rect width="45.585" height="257.424" stroke="none"/>
            <rect x="0.5" y="0.5" width="44.585" height="256.424" fill="none"/>
          </g>
        </g>
        <g id="Group_4-3" data-name="Group 4" transform="translate(795.54 -267.992) rotate(42)">
          <g id="Polygon_1-7" data-name="Polygon 1" transform="translate(136.756 364.684) rotate(180)" fill="#f57c00">
            <path d="M 135.8887329101563 117.4859161376953 L 0.8676744103431702 117.4859161376953 L 68.37820434570313 0.9971649050712585 L 135.8887329101563 117.4859161376953 Z" stroke="none"/>
            <path d="M 68.37820434570313 1.994300842285156 L 1.7353515625 116.9859008789063 L 135.0210571289063 116.9859008789063 L 68.37820434570313 1.994300842285156 M 68.37820434570313 -7.62939453125e-06 L 136.7564086914063 117.9859008789063 L 0 117.9859008789063 L 68.37820434570313 -7.62939453125e-06 Z" stroke="none" fill="#f57c00"/>
          </g>
          <g id="Rectangle_2-8" data-name="Rectangle 2" transform="translate(45.585 0)" fill="#f57c00" stroke="#f57c00" stroke-width="1">
            <rect width="45.585" height="257.424" stroke="none"/>
            <rect x="0.5" y="0.5" width="44.585" height="256.424" fill="none"/>
          </g>
        </g>
      </g>
      <text id="Save_exit_date_time" data-name="Save exit
 date/time" transform="translate(-115 2090)" fill="#f57c00" font-size="50" font-family="SegoeUI, Segoe UI"><tspan x="-109.863" y="0">SAVE EXIT</tspan><tspan x="-128.43" y="67" xml:space="preserve"> DATE/TIME</tspan></text>
    </g>
    <g id="Group_17" data-name="Group 17">
      <g id="surface1-13" data-name="surface1" transform="translate(-235 3955)">
        <path id="Path_16-4" data-name="Path 16" d="M447.984,342a26.032,26.032,0,0,0,26-26V236a26.032,26.032,0,0,0-26-26H346.894l-12.371-74.27A25.918,25.918,0,0,0,308.879,114H179.761A25.854,25.854,0,0,0,156.5,128.375l-40.332,80.664-91.321,26.1A26.117,26.117,0,0,0,6,260.137V316a26.032,26.032,0,0,0,26,26Z" transform="translate(0.012 -108)" fill="#ffca28"/>
        <path id="Path_17-4" data-name="Path 17" d="M179.773,120a19.9,19.9,0,0,0-17.894,11.051l-39.145,78.312-2.363,4.715-5.074,1.453L26.508,240.9A20.106,20.106,0,0,0,12,260.137V316a20.031,20.031,0,0,0,20,20H448a20.031,20.031,0,0,0,20-20v-80A20.028,20.028,0,0,0,448,216H341.832l-1.668-10.031L328.621,136.7a19.949,19.949,0,0,0-19.73-16.7H179.773m0-12H308.891a31.988,31.988,0,0,1,31.562,26.734L352,204h96a32,32,0,0,1,32,32v80A32,32,0,0,1,448,348h-416A32,32,0,0,1,0,316V260.137a32,32,0,0,1,23.207-30.77L112,204l39.145-78.312A32.024,32.024,0,0,1,179.773,108Z" transform="translate(0 -108)" fill="#f57c00"/>
        <path id="Path_18-4" data-name="Path 18" d="M330,330a48,48,0,1,0,48-48A48,48,0,0,0,330,330Z" transform="translate(-276 -108)" fill="#dff0fe"/>
        <path id="Path_19-4" data-name="Path 19" d="M378,288a42,42,0,1,0,42,42,42.046,42.046,0,0,0-42-42m0-12a54,54,0,1,1-54,54A54,54,0,0,1,378,276Z" transform="translate(-276 -108)" fill="#f57c00"/>
        <path id="Path_20-4" data-name="Path 20" d="M360,330a18,18,0,1,0,18-18A18,18,0,0,0,360,330Z" transform="translate(-276 -108)" fill="#f57c00"/>
        <path id="Path_21-4" data-name="Path 21" d="M54,330a48,48,0,1,0,48-48A48,48,0,0,0,54,330Z" transform="translate(276 -108)" fill="#dff0fe"/>
        <path id="Path_22-4" data-name="Path 22" d="M102,288a42,42,0,1,0,42,42,42.046,42.046,0,0,0-42-42m0-12a54,54,0,1,1-54,54A54,54,0,0,1,102,276Z" transform="translate(276 -108)" fill="#f57c00"/>
        <path id="Path_23-4" data-name="Path 23" d="M84,330a18,18,0,1,0,18-18A18,18,0,0,0,84,330Z" transform="translate(276 -108)" fill="#f57c00"/>
        <path id="Path_24-4" data-name="Path 24" d="M367.164,210,356.2,136.344A26.142,26.142,0,0,0,330.445,114H182.211a25.856,25.856,0,0,0-23.258,14.375l-40.668,80.676-3.324.949Z" transform="translate(-2.125 -108)" fill="#ffca28"/>
        <path id="Path_25-4" data-name="Path 25" d="M218.1,120A19.9,19.9,0,0,0,200.2,131.09L163.441,204H396.082l-9.957-66.828A20.1,20.1,0,0,0,366.324,120H218.1m0-12H366.324A32.009,32.009,0,0,1,398,135.48L410,216H108l42-12,39.469-78.312A32.026,32.026,0,0,1,218.1,108Z" transform="translate(-38.004 -108)" fill="#f57c00"/>
        <path id="Path_26-4" data-name="Path 26" d="M228,108H216V216h12Z" transform="translate(36 -108)" fill="#f57c00"/>
        <path id="Path_27-4" data-name="Path 27" d="M450,252a18,18,0,0,1,0,36h-6V257.988a23.722,23.722,0,0,1,.949-5.988Z" transform="translate(-432 -108)" fill="#fff"/>
        <path id="Path_28-4" data-name="Path 28" d="M30,276c-9.937,0-18-7.309-18-16.32V244.32C12,235.309,20.063,228,30,228h4.309A19.992,19.992,0,0,1,36,236v40Z" transform="translate(432 -108)" fill="#fff"/>
      </g>
      <g id="Group_12" data-name="Group 12" transform="translate(-85 3872.8)">
        <g id="surface1-14" data-name="surface1" transform="translate(376 125)">
          <path id="Path_29-7" data-name="Path 29" d="M156.921,90l-4.839,2.419-87.44,43.029-5.011,2.419,2.592,4.839,2.246,4.666H43.387L42,148.063,36.993,151,32.5,153.42l2.419,4.666L52.546,194.03l2.419,5.011,5.011-2.419,4.839-2.592,1.21-.518.864-1.037,11.751-16.244,3.111,6.221,2.419,5.011,5.011-2.419,42.683-21.082V202.67h49.768V191.61H142.924V158.6l33.525-16.589,5.011-2.419-2.419-4.839-19.7-39.746Zm-5.011,14.861L166.6,134.584,89.181,172.6l-10.2-20.564-.691-1.555-3.8-7.6ZM47.361,158.432H69.653l3.283,6.739L59.631,183.489Z" transform="translate(-32.5 -90)" fill="#f57c00"/>
        </g>
        <g id="surface1-15" data-name="surface1" transform="translate(555.593 125)">
          <path id="Path_29-8" data-name="Path 29" d="M57.211,90l4.839,2.419,87.44,43.029,5.011,2.419-2.592,4.839-2.246,4.666h21.082l1.382.691L177.139,151l4.493,2.419-2.419,4.666L161.587,194.03l-2.419,5.011-5.011-2.419-4.839-2.592-1.21-.518-.864-1.037-11.751-16.244-3.111,6.221-2.419,5.011-5.011-2.419L82.268,163.961V202.67H32.5V191.61H71.209V158.6L37.684,142.015,32.673,139.6l2.419-4.839,19.7-39.746Zm5.011,14.861L47.534,134.584,124.952,172.6l10.2-20.564.691-1.555,3.8-7.6Zm104.548,53.57H144.479l-3.283,6.739L154.5,183.489Z" transform="translate(-32.5 -90)" fill="#f57c00"/>
        </g>
        <g id="Rectangle_1-3" data-name="Rectangle 1" transform="translate(522 226.2)" fill="#ffa000" stroke="#f57c00" stroke-width="8">
          <rect width="34" height="134" stroke="none"/>
          <rect x="4" y="4" width="26" height="126" fill="none"/>
        </g>
      </g>
      <line id="Line_4" data-name="Line 4" x2="2556" transform="translate(-482.5 4233.5)" fill="none" stroke="#f57c00" stroke-width="8"/>
      <g id="surface1-16" data-name="surface1" transform="translate(585 3097)">
        <path id="Path_30-4" data-name="Path 30" d="M99.7,482.95l-2.143-.132A96.954,96.954,0,0,1,63.922,295.883l2.841-1.143-.455-3.033A96.7,96.7,0,0,1,187.566,183.643l3.912,1.066.89-3.953A120.237,120.237,0,0,1,414.451,148.3l1.29,2.275,2.592-.334a118.714,118.714,0,0,1,15.553-1.127A120.3,120.3,0,0,1,553.279,255.017l.221,1.946,1.709.97A120.285,120.285,0,0,1,496,482.95Z" transform="translate(0.882 0.882)" fill="#ffca28"/>
        <path id="Path_31-4" data-name="Path 31" d="M310.549,91.764a116.711,116.711,0,0,1,101.408,59.315l2.572,4.548,5.186-.666A115.492,115.492,0,0,1,550.3,256.353l.466,3.9,3.416,1.936a116.409,116.409,0,0,1-57.3,217.763h-393.3l-5.044-.132A93.071,93.071,0,0,1,66.249,300.368l5.691-2.29-.91-6.07a92.114,92.114,0,0,1-1.157-13.915,92.862,92.862,0,0,1,117.567-89.818l7.814,2.118,1.79-7.9a115.743,115.743,0,0,1,113.5-90.728m0-7.764a124.19,124.19,0,0,0-121.075,96.784A100.328,100.328,0,0,0,63.353,293.161a100.839,100.839,0,0,0,34.992,194.42v.132H496.878a124.168,124.168,0,0,0,61.129-232.275A123.2,123.2,0,0,0,418.715,147.268,124.107,124.107,0,0,0,310.549,84Z" fill="#f57c00"/>
      </g>
      <g id="Group_13" data-name="Group 13" transform="matrix(0.996, 0.087, -0.087, 0.996, -448.375, 3789.407)">
        <g id="Group_3-4" data-name="Group 3" transform="translate(876.162 -352.096) rotate(43)">
          <g id="Polygon_1-8" data-name="Polygon 1" transform="translate(0 0)" fill="#f57c00">
            <path d="M 135.8887329101563 117.4859237670898 L 0.8676743507385254 117.4859237670898 L 68.37820434570313 0.9971506595611572 L 135.8887329101563 117.4859237670898 Z" stroke="none"/>
            <path d="M 68.37820434570313 1.994308471679688 L 1.7353515625 116.9859237670898 L 135.0210571289063 116.9859237670898 L 68.37820434570313 1.994308471679688 M 68.37820434570313 -7.62939453125e-06 L 136.7564086914063 117.9859237670898 L 0 117.9859237670898 L 68.37820434570313 -7.62939453125e-06 Z" stroke="none" fill="#f57c00"/>
          </g>
          <g id="Rectangle_2-9" data-name="Rectangle 2" transform="translate(45.585 107.26)" fill="#f57c00" stroke="#f57c00" stroke-width="1">
            <rect width="45.585" height="257.424" stroke="none"/>
            <rect x="0.5" y="0.5" width="44.585" height="256.424" fill="none"/>
          </g>
        </g>
        <g id="Group_4-4" data-name="Group 4" transform="translate(795.54 -267.992) rotate(42)">
          <g id="Polygon_1-9" data-name="Polygon 1" transform="translate(136.756 364.684) rotate(180)" fill="#f57c00">
            <path d="M 135.8887329101563 117.4859161376953 L 0.8676744103431702 117.4859161376953 L 68.37820434570313 0.9971649050712585 L 135.8887329101563 117.4859161376953 Z" stroke="none"/>
            <path d="M 68.37820434570313 1.994300842285156 L 1.7353515625 116.9859008789063 L 135.0210571289063 116.9859008789063 L 68.37820434570313 1.994300842285156 M 68.37820434570313 -7.62939453125e-06 L 136.7564086914063 117.9859008789063 L 0 117.9859008789063 L 68.37820434570313 -7.62939453125e-06 Z" stroke="none" fill="#f57c00"/>
          </g>
          <g id="Rectangle_2-10" data-name="Rectangle 2" transform="translate(45.585 0)" fill="#f57c00" stroke="#f57c00" stroke-width="1">
            <rect width="45.585" height="257.424" stroke="none"/>
            <rect x="0.5" y="0.5" width="44.585" height="256.424" fill="none"/>
          </g>
        </g>
      </g>
      <text id="total_price_total_hrs_x_slot_price" data-name="total price =
total hrs x slot price" transform="translate(896 3437)" fill="#f57c00" font-size="50" font-family="SegoeUI, Segoe UI"><tspan x="-163.477" y="0">TOTAL PRICE =</tspan><tspan x="-275.818" y="67">TOTAL HRS X SLOT PRICE</tspan></text>
    </g>
  </g>
</svg>
