<svg width="783" height="379" viewBox="0 0 783 379" fill="none" xmlns="http://www.w3.org/2000/svg">
<g clip-path="url(#clip0)">
<path d="M292.63 291.043C292.63 311.291 245.727 327.606 187.901 327.606C130.074 327.606 83.1715 311.145 83.1715 291.043C83.1715 270.795 130.074 254.481 187.901 254.481C245.727 254.481 292.63 270.795 292.63 291.043Z" fill="#9EDCF2"/>
<path d="M292.63 291.043C292.63 311.291 245.727 327.606 187.901 327.606C130.074 327.606 83.1715 311.145 83.1715 291.043C83.1715 270.795 130.074 254.481 187.901 254.481C245.727 254.481 292.63 270.795 292.63 291.043Z" fill="#7DBCE7"/>
<path d="M68.3142 183.395L65.2554 193.883C65.2554 193.883 64.5271 197.671 68.0229 198.399C71.8101 198.253 71.5187 194.757 71.2274 193.738L68.3142 183.395Z" fill="#9EDCF2"/>
<path d="M372.596 139.259L372.888 137.948C342.154 131.83 310.691 131.684 291.61 132.558C294.669 121.342 295.688 108.232 295.688 93.8108C295.688 72.9803 287.823 56.3743 275.296 43.8469C277.481 36.7092 280.394 20.8315 272.383 0.583706C272.383 0.583706 258.108 -3.93198 225.626 17.7724C212.954 14.5678 199.408 12.9654 185.861 12.9654C171.004 12.9654 156.001 14.8591 141.872 18.6464C108.37 -4.22331 93.6589 0.438039 93.6589 0.438039C84.0454 24.4731 90.0174 42.3902 91.7653 46.7602C80.4039 58.9963 73.5579 74.5827 73.5579 93.6651C73.5579 108.086 75.1602 121.051 79.2386 132.267C60.0116 131.539 29.7145 131.83 0 137.802L0.291319 139.113C30.0058 133.141 60.5943 132.995 79.6756 133.724C80.5496 136.054 81.5692 138.385 82.5888 140.57C63.6531 141.153 31.4624 143.629 0.582637 152.369L1.01961 153.68C32.1907 144.94 64.6727 142.609 83.4628 142.027C94.8242 163.003 116.964 176.695 156.584 180.92C150.903 184.707 145.222 191.117 142.892 202.042C135.172 205.683 110.992 214.715 96.4264 189.66C96.4264 189.66 88.2695 174.802 72.684 173.636C72.684 173.636 57.5354 173.345 71.6644 183.105C71.6644 183.105 81.7148 187.912 88.7065 205.829C88.7065 205.829 97.883 236.419 141.726 226.514V257.832C141.726 257.832 140.853 269.049 130.511 272.69C130.511 272.69 124.393 276.915 130.948 279.245C130.948 279.245 159.351 281.576 159.351 258.269V223.892C159.351 223.892 158.186 210.199 164.886 205.538V262.056C164.886 262.056 164.449 275.604 157.458 280.702C157.458 280.702 152.797 289.005 162.993 286.82C162.993 286.82 182.511 284.052 183.385 261.182L183.822 203.935H188.483L188.92 261.182C189.794 283.907 209.312 286.82 209.312 286.82C219.509 289.151 214.847 280.702 214.847 280.702C207.856 275.604 207.419 262.056 207.419 262.056V205.975C214.119 211.219 212.954 223.892 212.954 223.892V258.269C212.954 281.576 241.357 279.245 241.357 279.245C247.912 276.915 241.794 272.69 241.794 272.69C231.598 268.903 230.579 257.832 230.579 257.832V212.675C230.579 195.05 223.15 185.727 215.867 180.92C258.108 176.695 278.355 163.148 287.677 141.881C306.176 142.318 339.532 144.649 371.285 153.68L371.722 152.369C340.114 143.483 307.05 141.153 288.26 140.57C289.134 138.385 289.862 136.2 290.59 133.869C310.109 133.141 341.717 133.141 372.596 139.259Z" fill="#010101"/>
<path d="M254.321 92.7901C263.352 101.093 268.741 110.998 268.741 121.632C268.741 171.742 231.453 173.053 185.424 173.053C139.396 173.053 102.107 166.061 102.107 121.632C102.107 110.998 107.351 101.093 116.382 92.9357C131.385 79.243 156.729 86.5264 185.424 86.5264C214.119 86.5264 239.318 79.0973 254.321 92.7901V92.7901Z" fill="#F5CCB3"/>
<path d="M157.749 124.254C157.749 138.093 150.029 149.163 140.416 149.163C130.802 149.163 123.082 137.947 123.082 124.254C123.082 110.416 130.802 99.3452 140.416 99.3452C150.029 99.1995 157.749 110.416 157.749 124.254V124.254Z" fill="white"/>
<path d="M152.214 124.546C152.214 133.723 146.97 141.152 140.707 141.152C134.298 141.152 129.2 133.723 129.2 124.546C129.2 115.368 134.444 107.939 140.707 107.939C146.97 107.939 152.214 115.368 152.214 124.546Z" fill="#AF5C51"/>
<path d="M250.825 124.254C250.825 138.093 243.105 149.163 233.492 149.163C223.878 149.163 216.158 137.947 216.158 124.254C216.158 110.416 223.878 99.3452 233.492 99.3452C242.96 99.1995 250.825 110.416 250.825 124.254V124.254Z" fill="white"/>
<path d="M245.144 124.546C245.144 133.723 239.901 141.152 233.637 141.152C227.228 141.152 222.13 133.723 222.13 124.546C222.13 115.368 227.374 107.939 233.637 107.939C240.046 107.939 245.144 115.368 245.144 124.546ZM190.085 146.396C190.085 148.726 188.192 150.766 185.715 150.766C183.385 150.766 181.346 148.872 181.346 146.396C181.346 143.919 183.239 142.026 185.715 142.026C188.046 142.026 190.085 143.919 190.085 146.396ZM175.665 157.321C175.374 156.592 175.811 155.864 176.539 155.573C177.267 155.281 177.996 155.718 178.287 156.447C179.452 159.651 182.365 161.691 185.715 161.691C189.066 161.691 191.979 159.506 193.144 156.447C193.435 155.718 194.164 155.281 194.892 155.573C195.62 155.864 196.057 156.592 195.766 157.321C194.309 161.545 190.231 164.458 185.715 164.458C181.2 164.458 177.122 161.545 175.665 157.321V157.321Z" fill="#AF5C51"/>
<path d="M79.3843 177.131C79.3843 178.297 78.0734 179.171 76.3254 179.171C74.7232 179.171 73.2666 178.297 73.2666 177.131C73.2666 175.966 74.5775 175.092 76.3254 175.092C78.0734 175.092 79.3843 175.966 79.3843 177.131ZM87.8325 181.793C87.8325 182.958 86.5216 183.832 84.7737 183.832C83.1714 183.832 81.7148 182.958 81.7148 181.793C81.7148 180.627 83.0258 179.753 84.7737 179.753C86.5216 179.753 87.8325 180.627 87.8325 181.793ZM92.9306 187.911C92.9306 189.076 91.6197 189.95 89.8718 189.95C88.2695 189.95 86.8129 189.076 86.8129 187.911C86.8129 186.745 88.1238 185.871 89.8718 185.871C91.6197 185.726 92.9306 186.745 92.9306 187.911ZM97.5917 194.903C97.5917 196.068 96.2808 196.942 94.5329 196.942C92.9306 196.942 91.474 196.068 91.474 194.903C91.474 193.737 92.7849 192.863 94.5329 192.863C96.2808 192.718 97.5917 193.737 97.5917 194.903ZM102.69 201.312C102.69 202.478 101.379 203.352 99.6309 203.352C98.0287 203.352 96.5721 202.478 96.5721 201.312C96.5721 200.147 97.883 199.273 99.6309 199.273C101.379 199.273 102.69 200.147 102.69 201.312ZM109.681 206.993C109.681 208.159 108.37 209.033 106.623 209.033C105.02 209.033 103.564 208.159 103.564 206.993C103.564 205.828 104.875 204.954 106.623 204.954C108.37 204.808 109.681 205.828 109.681 206.993ZM119.441 210.635C119.441 211.8 118.13 212.674 116.382 212.674C114.779 212.674 113.323 211.8 113.323 210.635C113.323 209.47 114.634 208.596 116.382 208.596C118.13 208.596 119.441 209.47 119.441 210.635ZM129.2 210.635C129.2 211.8 127.889 212.674 126.141 212.674C124.539 212.674 123.082 211.8 123.082 210.635C123.082 209.47 124.393 208.596 126.141 208.596C127.889 208.596 129.2 209.47 129.2 210.635ZM139.105 209.033C139.105 210.198 137.794 211.072 136.046 211.072C134.443 211.072 132.987 210.198 132.987 209.033C132.987 207.867 134.298 206.993 136.046 206.993C137.648 206.993 139.105 207.867 139.105 209.033Z" fill="#C4E5D9"/>
</g>
<g clip-path="url(#clip1)">
<path d="M484.02 182.124H452.905C452.52 182.125 452.15 182.278 451.877 182.551C451.604 182.823 451.451 183.193 451.451 183.578V198.789C451.451 199.175 451.604 199.545 451.877 199.818C452.15 200.091 452.519 200.245 452.905 200.245H465.043V219.143C465.043 219.143 462.318 220.072 454.783 220.072C445.893 220.072 433.474 216.824 433.474 189.52C433.474 162.21 446.406 158.616 458.546 158.616C469.055 158.616 473.582 160.467 476.462 161.358C477.368 161.635 478.205 160.735 478.205 159.931L481.676 145.235C481.676 144.86 481.549 144.406 481.12 144.099C479.951 143.265 472.813 139.271 454.783 139.271C434.011 139.271 412.704 148.108 412.704 190.584C412.704 233.064 437.099 239.393 457.655 239.393C474.676 239.393 485.001 232.12 485.001 232.12C485.427 231.884 485.473 231.29 485.473 231.017V183.578C485.473 182.776 484.823 182.124 484.02 182.124ZM644.373 144.361C644.375 144.17 644.339 143.981 644.267 143.804C644.195 143.627 644.089 143.466 643.955 143.33C643.821 143.194 643.661 143.086 643.485 143.012C643.309 142.938 643.12 142.9 642.929 142.899H625.409C625.218 142.9 625.028 142.938 624.852 143.012C624.675 143.086 624.515 143.194 624.381 143.33C624.246 143.465 624.139 143.626 624.067 143.803C623.994 143.98 623.957 144.17 623.958 144.361L623.962 178.214H596.654V144.361C596.656 144.17 596.619 143.981 596.547 143.804C596.475 143.627 596.369 143.466 596.235 143.33C596.101 143.194 595.941 143.086 595.765 143.012C595.588 142.938 595.399 142.9 595.208 142.899H577.69C577.304 142.901 576.935 143.056 576.663 143.33C576.392 143.605 576.241 143.975 576.242 144.361V236.025C576.242 236.833 576.892 237.49 577.69 237.49H595.208C596.01 237.49 596.654 236.832 596.654 236.025V196.816H623.962L623.915 236.025C623.915 236.833 624.565 237.49 625.366 237.49H642.928C643.73 237.49 644.372 236.832 644.373 236.025V144.361V144.361ZM517.08 156.39C517.08 150.082 512.022 144.985 505.782 144.985C499.549 144.985 494.487 150.082 494.487 156.39C494.487 162.691 499.549 167.801 505.782 167.801C512.022 167.801 517.08 162.691 517.08 156.39ZM515.827 216.689V174.377C515.828 173.991 515.676 173.621 515.404 173.347C515.133 173.073 514.763 172.918 514.378 172.916H496.913C496.112 172.916 495.395 173.742 495.395 174.546V235.166C495.395 236.948 496.506 237.477 497.943 237.477H513.677C515.404 237.477 515.827 236.629 515.827 235.138V216.689V216.689ZM710.955 173.054H693.569C692.772 173.054 692.123 173.711 692.123 174.519V219.465C692.123 219.465 687.706 222.696 681.437 222.696C675.169 222.696 673.506 219.853 673.506 213.715V174.519C673.506 173.711 672.857 173.054 672.06 173.054H654.415C653.619 173.054 652.966 173.711 652.966 174.519V216.683C652.966 234.911 663.127 239.371 677.106 239.371C688.574 239.371 697.819 233.037 697.819 233.037C697.819 233.037 698.259 236.375 698.458 236.771C698.658 237.166 699.177 237.564 699.737 237.564L710.963 237.515C711.759 237.515 712.412 236.856 712.412 236.052L712.406 174.52C712.406 173.711 711.756 173.054 710.955 173.054V173.054ZM751.614 222.641C745.584 222.457 741.493 219.721 741.493 219.721V190.694C741.493 190.694 745.528 188.221 750.479 187.778C756.739 187.218 762.772 189.109 762.772 204.041C762.772 219.787 760.05 222.895 751.614 222.641V222.641ZM758.471 170.996C748.597 170.996 741.88 175.401 741.88 175.401V144.362C741.88 143.552 741.234 142.899 740.435 142.899H722.866C722.675 142.9 722.486 142.939 722.309 143.013C722.133 143.087 721.973 143.195 721.839 143.33C721.704 143.466 721.598 143.627 721.526 143.804C721.453 143.981 721.417 144.171 721.418 144.362V236.025C721.418 236.833 722.067 237.49 722.868 237.49H735.059C735.607 237.49 736.022 237.207 736.329 236.712C736.632 236.22 737.069 232.486 737.069 232.486C737.069 232.486 744.254 239.293 757.853 239.293C773.819 239.293 782.976 231.196 782.976 202.942C782.976 174.688 768.352 170.996 758.471 170.996V170.996ZM566.179 172.908H553.037L553.017 155.548C553.017 154.891 552.679 154.563 551.919 154.563H534.011C533.314 154.563 532.94 154.87 532.94 155.538V173.478C532.94 173.478 523.966 175.643 523.359 175.819C523.056 175.907 522.79 176.091 522.601 176.342C522.412 176.594 522.31 176.901 522.31 177.216V188.489C522.31 189.3 522.957 189.952 523.758 189.952H532.94V217.071C532.94 237.215 547.071 239.194 556.607 239.194C560.964 239.194 566.176 237.795 567.037 237.476C567.557 237.285 567.859 236.746 567.859 236.162L567.874 223.761C567.874 222.952 567.191 222.299 566.421 222.299C565.656 222.299 563.697 222.61 561.68 222.61C555.225 222.61 553.037 219.609 553.037 215.724L553.037 189.951H566.179C566.98 189.951 567.629 189.298 567.629 188.488V174.368C567.63 174.177 567.593 173.987 567.52 173.81C567.448 173.634 567.342 173.473 567.207 173.337C567.072 173.202 566.912 173.094 566.736 173.02C566.559 172.947 566.37 172.909 566.179 172.908" fill="#121110"/>
</g>
<defs>
<clipPath id="clip0">
<rect width="372.888" height="378.664" fill="white"/>
</clipPath>
<clipPath id="clip1">
<rect width="370.32" height="100.121" fill="white" transform="translate(412.68 139.271)"/>
</clipPath>
</defs>
</svg>
