<svg width="954" height="315" viewBox="0 0 954 315" fill="none" xmlns="http://www.w3.org/2000/svg">
<path fill-rule="evenodd" clip-rule="evenodd" d="M239.728 69.3656C250.491 69.3656 258.405 65.5725 258.405 54.81C258.405 44.4938 252.459 40.7794 242.288 40.7794H233.048V69.3656H239.728ZM315 114.306V30.0825C315 13.4662 301.534 0 284.931 0H200.708C184.091 0 170.625 13.4662 170.625 30.0825V114.293C170.625 130.909 184.091 144.375 200.694 144.375H284.918C301.534 144.375 315 130.909 315 114.306ZM269.837 31.605C275.874 36.6319 278.906 44.1263 278.906 54.0881C278.906 64.4437 275.677 72.3581 269.246 77.8444C262.802 83.3306 253.641 86.0738 241.762 86.0738H233.048V120.317H212.743V24.0713H243.338C254.953 24.0713 263.786 26.5781 269.837 31.605ZM6.5625 131.25H35.4637L21.21 157.5C12.1538 157.5 0 154.928 0 144.519V137.812C0 134.19 2.94 131.25 6.5625 131.25ZM284.918 170.625L285.889 170.533L289.524 177.266C297.911 192.833 301.941 206.824 301.941 225.383C301.941 243.364 296.73 258.628 288.75 277.633V301.875C288.75 309.12 282.87 315 275.625 315H255.951C248.706 315 242.826 309.12 242.826 301.875V288.75H72.2006V301.875C72.2006 309.12 66.3206 315 59.0756 315H39.3881C32.1431 315 26.2631 309.12 26.2631 301.875V277.633C18.2831 258.628 13.0725 243.364 13.0725 225.383C13.0725 206.824 17.1019 192.833 25.4888 177.266C26.2601 175.834 27.0444 174.377 27.8409 172.898C38.266 153.531 50.7874 130.27 63.9319 108.334C74.7994 90.195 80.4956 85.9294 93.8306 83.5406C110.237 80.6006 125.58 79.3275 144.375 78.9338V103.976C128.874 104.409 114.765 105.683 99.1988 108.478C94.5525 109.318 90.4444 111.996 87.7931 115.907C76.0988 133.179 66.3863 157.146 66.3863 157.146C94.1194 165.913 129.189 170.625 200.694 170.625H284.918ZM39.375 216.562C39.375 227.43 48.195 236.25 59.0625 236.25C69.93 236.25 78.75 227.43 78.75 216.562C78.75 205.695 69.93 196.875 59.0625 196.875C48.195 196.875 39.375 205.695 39.375 216.562ZM111.562 236.25H203.438C207.06 236.25 210 233.31 210 229.688C210 226.065 207.06 223.125 203.438 223.125H111.562C107.94 223.125 105 226.065 105 229.688C105 233.31 107.94 236.25 111.562 236.25ZM236.25 216.562C236.25 227.43 245.07 236.25 255.938 236.25C266.805 236.25 275.625 227.43 275.625 216.562C275.625 205.695 266.805 196.875 255.938 196.875C245.07 196.875 236.25 205.695 236.25 216.562ZM252.668 114C253.137 114.352 253.371 114.859 253.371 115.523C253.371 116.133 253.137 116.609 252.668 116.953C252.199 117.289 251.547 117.457 250.711 117.457C248.461 117.457 247.336 116.516 247.336 114.633H243.809C243.809 115.734 244.09 116.703 244.652 117.539C245.223 118.375 246.047 119.035 247.125 119.52C248.203 119.996 249.398 120.234 250.711 120.234C252.602 120.234 254.105 119.816 255.223 118.98C256.34 118.137 256.898 116.977 256.898 115.5C256.898 114.172 256.441 113.062 255.527 112.172C254.613 111.281 253.156 110.535 251.156 109.934C250.07 109.605 249.246 109.254 248.684 108.879C248.129 108.504 247.852 108.039 247.852 107.484C247.852 106.891 248.09 106.414 248.566 106.055C249.043 105.688 249.711 105.504 250.57 105.504C251.461 105.504 252.152 105.723 252.645 106.16C253.137 106.59 253.383 107.195 253.383 107.977H256.898C256.898 106.953 256.633 106.039 256.102 105.234C255.578 104.43 254.84 103.809 253.887 103.371C252.934 102.926 251.848 102.703 250.629 102.703C249.418 102.703 248.324 102.906 247.348 103.312C246.379 103.719 245.633 104.285 245.109 105.012C244.594 105.73 244.336 106.551 244.336 107.473C244.336 109.246 245.305 110.656 247.242 111.703C247.953 112.086 248.918 112.477 250.137 112.875C251.355 113.266 252.199 113.641 252.668 114ZM262.805 120V113.988H265.887C267.91 113.988 269.492 113.508 270.633 112.547C271.781 111.578 272.355 110.258 272.355 108.586C272.355 107.484 272.094 106.504 271.57 105.645C271.047 104.777 270.297 104.109 269.32 103.641C268.352 103.172 267.227 102.938 265.945 102.938H259.289V120H262.805ZM265.945 111.141H262.805V105.785H266.027C266.895 105.801 267.574 106.066 268.066 106.582C268.559 107.098 268.805 107.773 268.805 108.609C268.805 109.422 268.559 110.047 268.066 110.484C267.582 110.922 266.875 111.141 265.945 111.141ZM287.906 116.273C288.5 115.008 288.797 113.535 288.797 111.855V111.094C288.797 109.422 288.492 107.949 287.883 106.676C287.281 105.395 286.426 104.414 285.316 103.734C284.215 103.047 282.953 102.703 281.531 102.703C280.109 102.703 278.844 103.047 277.734 103.734C276.633 104.414 275.777 105.395 275.168 106.676C274.566 107.949 274.266 109.426 274.266 111.105V111.949C274.273 113.59 274.582 115.043 275.191 116.309C275.801 117.566 276.66 118.535 277.77 119.215C278.879 119.895 280.141 120.234 281.555 120.234C282.984 120.234 284.25 119.891 285.352 119.203C286.461 118.516 287.312 117.539 287.906 116.273ZM284.273 107.004C284.914 107.934 285.234 109.293 285.234 111.082V111.914C285.227 113.688 284.906 115.039 284.273 115.969C283.641 116.891 282.734 117.352 281.555 117.352C280.352 117.352 279.43 116.871 278.789 115.91C278.148 114.949 277.828 113.598 277.828 111.855V111.023C277.836 109.25 278.16 107.906 278.801 106.992C279.441 106.07 280.352 105.609 281.531 105.609C282.719 105.609 283.633 106.074 284.273 107.004ZM297.961 105.785H303.188V102.938H289.289V105.785H294.445V120H297.961V105.785Z" fill="#FFCA28"/>
<path d="M353.281 124.188V142H347.281V96.5H364.062C369.042 96.5 372.938 97.7708 375.75 100.312C378.583 102.854 380 106.219 380 110.406C380 114.823 378.615 118.229 375.844 120.625C373.094 123 369.146 124.188 364 124.188H353.281ZM353.281 119.281H364.062C367.271 119.281 369.729 118.531 371.438 117.031C373.146 115.51 374 113.323 374 110.469C374 107.76 373.146 105.594 371.438 103.969C369.729 102.344 367.385 101.5 364.406 101.438H353.281V119.281ZM407.25 142C406.917 141.333 406.646 140.146 406.438 138.438C403.75 141.229 400.542 142.625 396.812 142.625C393.479 142.625 390.74 141.688 388.594 139.812C386.469 137.917 385.406 135.521 385.406 132.625C385.406 129.104 386.74 126.375 389.406 124.438C392.094 122.479 395.865 121.5 400.719 121.5H406.344V118.844C406.344 116.823 405.74 115.219 404.531 114.031C403.323 112.823 401.542 112.219 399.188 112.219C397.125 112.219 395.396 112.74 394 113.781C392.604 114.823 391.906 116.083 391.906 117.562H386.094C386.094 115.875 386.688 114.25 387.875 112.688C389.083 111.104 390.708 109.854 392.75 108.938C394.812 108.021 397.073 107.562 399.531 107.562C403.427 107.562 406.479 108.542 408.688 110.5C410.896 112.438 412.042 115.115 412.125 118.531V134.094C412.125 137.198 412.521 139.667 413.312 141.5V142H407.25ZM397.656 137.594C399.469 137.594 401.188 137.125 402.812 136.188C404.438 135.25 405.615 134.031 406.344 132.531V125.594H401.812C394.729 125.594 391.188 127.667 391.188 131.812C391.188 133.625 391.792 135.042 393 136.062C394.208 137.083 395.76 137.594 397.656 137.594ZM437.531 113.375C436.656 113.229 435.708 113.156 434.688 113.156C430.896 113.156 428.323 114.771 426.969 118V142H421.188V108.188H426.812L426.906 112.094C428.802 109.073 431.49 107.562 434.969 107.562C436.094 107.562 436.948 107.708 437.531 108V113.375ZM452.312 126.344L448.688 130.125V142H442.906V94H448.688V123.031L451.781 119.312L462.312 108.188H469.344L456.188 122.312L470.875 142H464.094L452.312 126.344ZM481.594 142H475.812V108.188H481.594V142ZM475.344 99.2188C475.344 98.2812 475.625 97.4896 476.188 96.8438C476.771 96.1979 477.625 95.875 478.75 95.875C479.875 95.875 480.729 96.1979 481.312 96.8438C481.896 97.4896 482.188 98.2812 482.188 99.2188C482.188 100.156 481.896 100.938 481.312 101.562C480.729 102.188 479.875 102.5 478.75 102.5C477.625 102.5 476.771 102.188 476.188 101.562C475.625 100.938 475.344 100.156 475.344 99.2188ZM496.344 108.188L496.531 112.438C499.115 109.188 502.49 107.562 506.656 107.562C513.802 107.562 517.406 111.594 517.469 119.656V142H511.688V119.625C511.667 117.188 511.104 115.385 510 114.219C508.917 113.052 507.219 112.469 504.906 112.469C503.031 112.469 501.385 112.969 499.969 113.969C498.552 114.969 497.448 116.281 496.656 117.906V142H490.875V108.188H496.344ZM524.812 124.812C524.812 119.542 526.031 115.354 528.469 112.25C530.906 109.125 534.135 107.562 538.156 107.562C542.281 107.562 545.5 109.021 547.812 111.938L548.094 108.188H553.375V141.188C553.375 145.562 552.073 149.01 549.469 151.531C546.885 154.052 543.406 155.312 539.031 155.312C536.594 155.312 534.208 154.792 531.875 153.75C529.542 152.708 527.76 151.281 526.531 149.469L529.531 146C532.01 149.062 535.042 150.594 538.625 150.594C541.438 150.594 543.625 149.802 545.188 148.219C546.771 146.635 547.562 144.406 547.562 141.531V138.625C545.25 141.292 542.094 142.625 538.094 142.625C534.135 142.625 530.927 141.031 528.469 137.844C526.031 134.656 524.812 130.312 524.812 124.812ZM530.625 125.469C530.625 129.281 531.406 132.281 532.969 134.469C534.531 136.635 536.719 137.719 539.531 137.719C543.177 137.719 545.854 136.062 547.562 132.75V117.312C545.792 114.083 543.135 112.469 539.594 112.469C536.781 112.469 534.583 113.562 533 115.75C531.417 117.938 530.625 121.177 530.625 125.469ZM358.312 171.5L370 204.5L381.625 171.5H393.938V217H384.531V204.562L385.469 183.094L373.188 217H366.75L354.5 183.125L355.438 204.562V217H346.062V171.5H358.312ZM421.125 217C420.708 216.188 420.406 215.177 420.219 213.969C418.031 216.406 415.188 217.625 411.688 217.625C408.375 217.625 405.625 216.667 403.438 214.75C401.271 212.833 400.188 210.417 400.188 207.5C400.188 203.917 401.51 201.167 404.156 199.25C406.823 197.333 410.667 196.365 415.688 196.344H419.844V194.406C419.844 192.844 419.438 191.594 418.625 190.656C417.833 189.719 416.573 189.25 414.844 189.25C413.323 189.25 412.125 189.615 411.25 190.344C410.396 191.073 409.969 192.073 409.969 193.344H400.938C400.938 191.385 401.542 189.573 402.75 187.906C403.958 186.24 405.667 184.938 407.875 184C410.083 183.042 412.562 182.562 415.312 182.562C419.479 182.562 422.781 183.615 425.219 185.719C427.677 187.802 428.906 190.74 428.906 194.531V209.188C428.927 212.396 429.375 214.823 430.25 216.469V217H421.125ZM413.656 210.719C414.99 210.719 416.219 210.427 417.344 209.844C418.469 209.24 419.302 208.438 419.844 207.438V201.625H416.469C411.948 201.625 409.542 203.188 409.25 206.312L409.219 206.844C409.219 207.969 409.615 208.896 410.406 209.625C411.198 210.354 412.281 210.719 413.656 210.719ZM444.156 183.188L444.438 187.094C446.854 184.073 450.094 182.562 454.156 182.562C457.74 182.562 460.406 183.615 462.156 185.719C463.906 187.823 464.802 190.969 464.844 195.156V217H455.812V195.375C455.812 193.458 455.396 192.073 454.562 191.219C453.729 190.344 452.344 189.906 450.406 189.906C447.865 189.906 445.958 190.99 444.688 193.156V217H435.656V183.188H444.156ZM491.312 217C490.896 216.188 490.594 215.177 490.406 213.969C488.219 216.406 485.375 217.625 481.875 217.625C478.562 217.625 475.812 216.667 473.625 214.75C471.458 212.833 470.375 210.417 470.375 207.5C470.375 203.917 471.698 201.167 474.344 199.25C477.01 197.333 480.854 196.365 485.875 196.344H490.031V194.406C490.031 192.844 489.625 191.594 488.812 190.656C488.021 189.719 486.76 189.25 485.031 189.25C483.51 189.25 482.312 189.615 481.438 190.344C480.583 191.073 480.156 192.073 480.156 193.344H471.125C471.125 191.385 471.729 189.573 472.938 187.906C474.146 186.24 475.854 184.938 478.062 184C480.271 183.042 482.75 182.562 485.5 182.562C489.667 182.562 492.969 183.615 495.406 185.719C497.865 187.802 499.094 190.74 499.094 194.531V209.188C499.115 212.396 499.562 214.823 500.438 216.469V217H491.312ZM483.844 210.719C485.177 210.719 486.406 210.427 487.531 209.844C488.656 209.24 489.49 208.438 490.031 207.438V201.625H486.656C482.135 201.625 479.729 203.188 479.438 206.312L479.406 206.844C479.406 207.969 479.802 208.896 480.594 209.625C481.385 210.354 482.469 210.719 483.844 210.719ZM504.719 199.844C504.719 194.656 505.948 190.479 508.406 187.312C510.885 184.146 514.219 182.562 518.406 182.562C522.115 182.562 525 183.833 527.062 186.375L527.438 183.188H535.625V215.875C535.625 218.833 534.948 221.406 533.594 223.594C532.26 225.781 530.375 227.448 527.938 228.594C525.5 229.74 522.646 230.312 519.375 230.312C516.896 230.312 514.479 229.812 512.125 228.812C509.771 227.833 507.99 226.562 506.781 225L510.781 219.5C513.031 222.021 515.76 223.281 518.969 223.281C521.365 223.281 523.229 222.635 524.562 221.344C525.896 220.073 526.562 218.26 526.562 215.906V214.094C524.479 216.448 521.74 217.625 518.344 217.625C514.281 217.625 510.99 216.042 508.469 212.875C505.969 209.688 504.719 205.469 504.719 200.219V199.844ZM513.75 200.5C513.75 203.562 514.365 205.969 515.594 207.719C516.823 209.448 518.51 210.312 520.656 210.312C523.406 210.312 525.375 209.281 526.562 207.219V193C525.354 190.938 523.406 189.906 520.719 189.906C518.552 189.906 516.844 190.792 515.594 192.562C514.365 194.333 513.75 196.979 513.75 200.5ZM558.156 217.625C553.198 217.625 549.156 216.104 546.031 213.062C542.927 210.021 541.375 205.969 541.375 200.906V200.031C541.375 196.635 542.031 193.604 543.344 190.938C544.656 188.25 546.51 186.188 548.906 184.75C551.323 183.292 554.073 182.562 557.156 182.562C561.781 182.562 565.417 184.021 568.062 186.938C570.729 189.854 572.062 193.99 572.062 199.344V203.031H550.531C550.823 205.24 551.698 207.01 553.156 208.344C554.635 209.677 556.5 210.344 558.75 210.344C562.229 210.344 564.948 209.083 566.906 206.562L571.344 211.531C569.99 213.448 568.156 214.948 565.844 216.031C563.531 217.094 560.969 217.625 558.156 217.625ZM557.125 189.875C555.333 189.875 553.875 190.479 552.75 191.688C551.646 192.896 550.938 194.625 550.625 196.875H563.188V196.156C563.146 194.156 562.604 192.615 561.562 191.531C560.521 190.427 559.042 189.875 557.125 189.875ZM585.688 183.188L585.969 186.969C588.365 184.031 591.604 182.562 595.688 182.562C600.042 182.562 603.031 184.281 604.656 187.719C607.031 184.281 610.417 182.562 614.812 182.562C618.479 182.562 621.208 183.635 623 185.781C624.792 187.906 625.688 191.115 625.688 195.406V217H616.625V195.438C616.625 193.521 616.25 192.125 615.5 191.25C614.75 190.354 613.427 189.906 611.531 189.906C608.823 189.906 606.948 191.198 605.906 193.781L605.938 217H596.906V195.469C596.906 193.51 596.521 192.094 595.75 191.219C594.979 190.344 593.667 189.906 591.812 189.906C589.25 189.906 587.396 190.969 586.25 193.094V217H577.219V183.188H585.688ZM648.219 217.625C643.26 217.625 639.219 216.104 636.094 213.062C632.99 210.021 631.438 205.969 631.438 200.906V200.031C631.438 196.635 632.094 193.604 633.406 190.938C634.719 188.25 636.573 186.188 638.969 184.75C641.385 183.292 644.135 182.562 647.219 182.562C651.844 182.562 655.479 184.021 658.125 186.938C660.792 189.854 662.125 193.99 662.125 199.344V203.031H640.594C640.885 205.24 641.76 207.01 643.219 208.344C644.698 209.677 646.562 210.344 648.812 210.344C652.292 210.344 655.01 209.083 656.969 206.562L661.406 211.531C660.052 213.448 658.219 214.948 655.906 216.031C653.594 217.094 651.031 217.625 648.219 217.625ZM647.188 189.875C645.396 189.875 643.938 190.479 642.812 191.688C641.708 192.896 641 194.625 640.688 196.875H653.25V196.156C653.208 194.156 652.667 192.615 651.625 191.531C650.583 190.427 649.104 189.875 647.188 189.875ZM675.594 183.188L675.875 187.094C678.292 184.073 681.531 182.562 685.594 182.562C689.177 182.562 691.844 183.615 693.594 185.719C695.344 187.823 696.24 190.969 696.281 195.156V217H687.25V195.375C687.25 193.458 686.833 192.073 686 191.219C685.167 190.344 683.781 189.906 681.844 189.906C679.302 189.906 677.396 190.99 676.125 193.156V217H667.094V183.188H675.594ZM713.969 174.875V183.188H719.75V189.812H713.969V206.688C713.969 207.938 714.208 208.833 714.688 209.375C715.167 209.917 716.083 210.188 717.438 210.188C718.438 210.188 719.323 210.115 720.094 209.969V216.812C718.323 217.354 716.5 217.625 714.625 217.625C708.292 217.625 705.062 214.427 704.938 208.031V189.812H700V183.188H704.938V174.875H713.969ZM764.906 205.062C764.906 203.292 764.281 201.938 763.031 201C761.781 200.042 759.531 199.042 756.281 198C753.031 196.938 750.458 195.896 748.562 194.875C743.396 192.083 740.812 188.323 740.812 183.594C740.812 181.135 741.5 178.948 742.875 177.031C744.271 175.094 746.26 173.583 748.844 172.5C751.448 171.417 754.365 170.875 757.594 170.875C760.844 170.875 763.74 171.469 766.281 172.656C768.823 173.823 770.792 175.479 772.188 177.625C773.604 179.771 774.312 182.208 774.312 184.938H764.938C764.938 182.854 764.281 181.24 762.969 180.094C761.656 178.927 759.812 178.344 757.438 178.344C755.146 178.344 753.365 178.833 752.094 179.812C750.823 180.771 750.188 182.042 750.188 183.625C750.188 185.104 750.927 186.344 752.406 187.344C753.906 188.344 756.104 189.281 759 190.156C764.333 191.76 768.219 193.75 770.656 196.125C773.094 198.5 774.312 201.458 774.312 205C774.312 208.938 772.823 212.031 769.844 214.281C766.865 216.51 762.854 217.625 757.812 217.625C754.312 217.625 751.125 216.99 748.25 215.719C745.375 214.427 743.177 212.667 741.656 210.438C740.156 208.208 739.406 205.625 739.406 202.688H748.812C748.812 207.708 751.812 210.219 757.812 210.219C760.042 210.219 761.781 209.771 763.031 208.875C764.281 207.958 764.906 206.688 764.906 205.062ZM792.719 204.219L798.969 183.188H808.656L795.062 222.25L794.312 224.031C792.292 228.448 788.958 230.656 784.312 230.656C783 230.656 781.667 230.458 780.312 230.062V223.219L781.688 223.25C783.396 223.25 784.667 222.99 785.5 222.469C786.354 221.948 787.021 221.083 787.5 219.875L788.562 217.094L776.719 183.188H786.438L792.719 204.219ZM830.531 207.656C830.531 206.552 829.979 205.688 828.875 205.062C827.792 204.417 826.042 203.844 823.625 203.344C815.583 201.656 811.562 198.24 811.562 193.094C811.562 190.094 812.802 187.594 815.281 185.594C817.781 183.573 821.042 182.562 825.062 182.562C829.354 182.562 832.781 183.573 835.344 185.594C837.927 187.615 839.219 190.24 839.219 193.469H830.188C830.188 192.177 829.771 191.115 828.938 190.281C828.104 189.427 826.802 189 825.031 189C823.51 189 822.333 189.344 821.5 190.031C820.667 190.719 820.25 191.594 820.25 192.656C820.25 193.656 820.719 194.469 821.656 195.094C822.615 195.698 824.219 196.229 826.469 196.688C828.719 197.125 830.615 197.625 832.156 198.188C836.927 199.938 839.312 202.969 839.312 207.281C839.312 210.365 837.99 212.865 835.344 214.781C832.698 216.677 829.281 217.625 825.094 217.625C822.26 217.625 819.74 217.125 817.531 216.125C815.344 215.104 813.625 213.719 812.375 211.969C811.125 210.198 810.5 208.292 810.5 206.25H819.062C819.146 207.854 819.74 209.083 820.844 209.938C821.948 210.792 823.427 211.219 825.281 211.219C827.01 211.219 828.312 210.896 829.188 210.25C830.083 209.583 830.531 208.719 830.531 207.656ZM855.969 174.875V183.188H861.75V189.812H855.969V206.688C855.969 207.938 856.208 208.833 856.688 209.375C857.167 209.917 858.083 210.188 859.438 210.188C860.438 210.188 861.323 210.115 862.094 209.969V216.812C860.323 217.354 858.5 217.625 856.625 217.625C850.292 217.625 847.062 214.427 846.938 208.031V189.812H842V183.188H846.938V174.875H855.969ZM882.344 217.625C877.385 217.625 873.344 216.104 870.219 213.062C867.115 210.021 865.562 205.969 865.562 200.906V200.031C865.562 196.635 866.219 193.604 867.531 190.938C868.844 188.25 870.698 186.188 873.094 184.75C875.51 183.292 878.26 182.562 881.344 182.562C885.969 182.562 889.604 184.021 892.25 186.938C894.917 189.854 896.25 193.99 896.25 199.344V203.031H874.719C875.01 205.24 875.885 207.01 877.344 208.344C878.823 209.677 880.688 210.344 882.938 210.344C886.417 210.344 889.135 209.083 891.094 206.562L895.531 211.531C894.177 213.448 892.344 214.948 890.031 216.031C887.719 217.094 885.156 217.625 882.344 217.625ZM881.312 189.875C879.521 189.875 878.062 190.479 876.938 191.688C875.833 192.896 875.125 194.625 874.812 196.875H887.375V196.156C887.333 194.156 886.792 192.615 885.75 191.531C884.708 190.427 883.229 189.875 881.312 189.875ZM909.875 183.188L910.156 186.969C912.552 184.031 915.792 182.562 919.875 182.562C924.229 182.562 927.219 184.281 928.844 187.719C931.219 184.281 934.604 182.562 939 182.562C942.667 182.562 945.396 183.635 947.188 185.781C948.979 187.906 949.875 191.115 949.875 195.406V217H940.812V195.438C940.812 193.521 940.438 192.125 939.688 191.25C938.938 190.354 937.615 189.906 935.719 189.906C933.01 189.906 931.135 191.198 930.094 193.781L930.125 217H921.094V195.469C921.094 193.51 920.708 192.094 919.938 191.219C919.167 190.344 917.854 189.906 916 189.906C913.438 189.906 911.583 190.969 910.438 193.094V217H901.406V183.188H909.875Z" fill="#757575"/>
</svg>
